<svg height="383.984pt" viewBox="0 0 383.984 383.984" width="383.984pt" xmlns="http://www.w3.org/2000/svg"><path d="m32.023438 374.609375c6.039062 6.039063 14.082031 9.375 22.632812 9.375s16.582031-3.335937 22.625-9.375l70.015625-70.015625c.007813-.007812.015625-.007812.023437-.019531.007813-.007813.007813-.015625.015626-.023438l80.25-80.246093 33.933593 33.933593c6.242188 6.242188 14.433594 9.363281 22.625 9.363281 8.191407 0 16.390625-3.121093 22.632813-9.363281l67.847656-67.847656c12.480469-12.480469 12.480469-32.773437 0-45.253906l-135.769531-135.777344c-12.480469-12.480469-32.785157-12.480469-45.253907 0l-67.847656 67.847656c-12.480468 12.480469-12.480468 32.777344 0 45.257813l33.933594 33.933594-80.261719 80.257812c-.011719.007812-.019531.007812-.027343.015625-.007813.007813-.007813.015625-.015626.023437l-70.007812 70.007813c-6.039062 6.039063-9.375 14.082031-9.375 22.625s3.335938 16.582031 9.375 22.625zm184.207031-342.625 135.785156 135.757813-67.863281 67.867187-135.777344-135.777344zm-80.230469 238.65625-22.65625-22.65625 68.960938-68.960937 22.648437 22.648437zm-45.28125-.03125 22.648438 22.648437-58.710938 58.726563-22.65625-22.65625zm0 0"/></svg>